# xmcd
#
# Track frame offsets: 
#        150
#        10114
#        14892
#        25212
#        32720
#        39530
#        45512
#        54680
#        60607
#        65532
#        70787
#        80213
#        88534
#        96493
#        102990
#        107774
#        111949
#        117096
#        122506
#        134742
#        138687
#        145775
#        155795
#        159475
#        163698
#        176202
#        181119
#        187309
#        193338
#        199973
#        203242
#        209867
#        213512
#        221839
#        228214
#        235066
#        239302
#        250185
#        254606
#        263993
#
# Disc length: 3611 seconds
#
# Revision: 2
# Processed by: cddbd v1.5.2PL0 Copyright (c) Steve Scherf et al.
# Submitted via: ExactAudioCopyFreeDBPlugin 1.0
#
DISCID=730e1928
DTITLE=Various Artist - Happy 童謠列車2 我最喜愛的英文童謠
DYEAR=2007
DGENRE=Country
TTITLE0=Christmas Is Coming
TTITLE1=Dinosaur Where Are You?
TTITLE2=Dargon Boat Race
TTITLE3=Daddy, I Love You
TTITLE4=Easter Eggs
TTITLE5=Good Morning
TTITLE6=Grandfather's Dog And Grandmother's Cat
TTITLE7=Going to the Market
TTITLE8=How Old Are You?
TTITLE9=Hot Cross Buns
TTITLE10=Happy Mother's Day
TTITLE11=Happy Birthday
TTITLE12=How Is the Weather
TTITLE13=Happy New Year
TTITLE14=I Am Peter
TTITLE15=I Like Winter
TTITLE16=I See a Toy Doggie
TTITLE17=I Can Make It
TTITLE18=Jingle Bells
TTITLE19=Let's Sing Together
TTITLE20=Lullaby
TTITLE21=Merry Christmas and Happy New Year
TTITLE22=Rain Rain Go Away
TTITLE23=Sew with a Needle And Thread
TTITLE24=Spring, Summer, Fall, Winter
TTITLE25=Star Light
TTITLE26=Super Teacher
TTITLE27=Trick or Treat
TTITLE28=The Beach in the Summer
TTITLE29=That's the Way the Money Goes
TTITLE30=Turkey and Pumpkin
TTITLE31=The Mulberry Bush
TTITLE32=The Traffic Light
TTITLE33=The Move We Get Together
TTITLE34=Turn Around and Touch the Ground
TTITLE35=The Wheels in the Bus
TTITLE36=What Do You Want to Be?
TTITLE37=What's Your Name?
TTITLE38=We Like to Plant Trees
TTITLE39=What Is It?
EXTD=YEAR: 2007
EXTT0=
EXTT1=
EXTT2=
EXTT3=
EXTT4=
EXTT5=
EXTT6=
EXTT7=
EXTT8=
EXTT9=
EXTT10=
EXTT11=
EXTT12=
EXTT13=
EXTT14=
EXTT15=
EXTT16=
EXTT17=
EXTT18=
EXTT19=
EXTT20=
EXTT21=
EXTT22=
EXTT23=
EXTT24=
EXTT25=
EXTT26=
EXTT27=
EXTT28=
EXTT29=
EXTT30=
EXTT31=
EXTT32=
EXTT33=
EXTT34=
EXTT35=
EXTT36=
EXTT37=
EXTT38=
EXTT39=
PLAYORDER=
